<svg xmlns="http://www.w3.org/2000/svg" id="One_line_x2C__cmyk_x2C__positive" viewBox="0 0 104.4 34.599998" width="104.4" height="34.6"><style id="style3">.st0{fill:#0051a5}.st1{fill:#fedf01}.st2{fill:#fff}</style><g id="Layer_2_4_" transform="translate(-334.9 -233.5)"><g id="g6"><g id="g8"><g id="g10"><g id="g12"><g id="g14"><g id="g16"><path class="st0" d="M360.8 263.5c0 1.1-.5 1.7-1.3 2.1-3.4 1.3-7.5 2-11.4 2-3.9 0-8-.7-11.4-2-.9-.3-1.3-1-1.3-2.1v-29.4h25.5v29.4z" id="path18" fill="#0051a5"/><g id="g20"><g id="g22"><path class="st1" d="M342.2 252c-3.5-2.2-4.7-3.2-4.8-4.6 0-.3 0-.8.2-1.1l-.3-.2c-.3.4-.4 1-.4 1.5 0 .8.3 1.5.6 2 .5.8 1 1.2 2.3 2.2 1.4 1 2.3 2.3 2.9 3.5h.2v-1.4c1.9 1.1 3.5 2.1 4.3 3.8h.2c-.4-2-1.5-3.4-5.2-5.7z" id="path24" fill="#fedf01"/><path class="st1" d="M358.4 257.6h-.2c0-1.3-1.2-1.7-2.5-1.7h-4c.1.6.2 1.4.1 2.1h-.2c-.4-3-2-4.4-4.4-6v1.3h-.2c-.6-1.4-2-2.7-3.3-3.6-.3-.2-.7-.5-1.1-.8v1.5h-.2c-.5-1.4-1.5-2.5-3-3.8-1.5-1.4-2.2-2.2-2.5-3.2-.2-.6-.3-1-.3-1.7 0-1.1.6-2.1 1.3-2.5v.5c-.4.5-.5 1.1-.5 1.7 0 .6.1 1.2.4 1.7.9 1.6 3.8 3.7 5.6 4.9 5.7 3.8 6.9 4.5 7.8 6.6.1.2.2.5.3.9.8-.1 3.8-.6 4.4-.7.1 0 .3 0 .4-.1.5-.3.9-.7 1.3-1.3l-2.2-.2c-.1.3-.2.5-.3.6h-.2c.1-.2.1-.4.2-.7h-.6v-.1l.6-.1c.1-.6.2-1.2.2-1.8l-2.8-.2v.8h-.2c-.1-.3-.1-.6-.1-.8h-.6v.1h.6c-.1-.7-.1-1.4-.1-2l-1.6-.1c.1.1.2.3.2.4.3 1 .3 2.1.2 2.6h-.2c0-.6-.2-1.4-.4-1.8-.4-1.1-1.5-2-3.1-3.1v1.3h-.2c-.6-1.8-2-2.8-4-3.8-1.7-.9-2.2-1.9-2.1-3.6l.6.3c.1 1.5 1.3 2.4 2.6 2.4.7 0 1.4-.1 2.1-.2.9-.2 1.8-.4 2.6-.1v-.9h-.6c-.2.2-.6.4-1.2.4-.7 0-2-.4-2-1.8 0-1.2 1-1.4 1.9-1.4h1.5c.2 0 .3 0 .4-.1.1-.1.1-.2.1-.3v-.6-.9h-4v1.6l-1.5-.6v-.4h.7v-.6h-2.7v-1.3h-.9c-.5 0-1 .3-1.1 1 0 .6.2 1.2.9 1.2h.1v.8h-.1c-1.1 0-2-.9-2-2 0-1.2 1-2.1 2.2-2.1h1.9v1.3h7.5v2.9c0 .2-.1.6-.5.9-.2.2-.6.2-1.1.2h-1.4c-.9-.1-1.1.3-1.1.6v.2c.4-.3 1-.5 1.6-.3 1.1.4 1.5.4 2-.1l.1.1c-.1.1-.2.2-.3.4h.5v3l1.7-1h4.8s2 1.1 2.4 1.2c.3.2.4.3.5.6 0 .2 0 .5-.1.7-.1.1-.6 1-.9 1.5.8.9 1.4 2.1 1.4 3.5 0 1.2-.5 2.8-2 4 .7.2 1.1.6 1.4 1l-.5 1.6zm-10.6-16c-.7-.1-1-.1-1.4.3.2.1.4.1.7.1.3 0 .5-.2.7-.4zm-.4 4.3l1.9-1.1c-.4-.2-.8-.3-1.3-.3-.7 0-1.8.3-2.3.4.3.1 1.1.6 1.7 1zm8.4.1l.3-.4-.4-.5.1-.1 1.1.6-.2.8c.2.1.4.2.6.4l.7-1.2-1.9-1h-4.2l-3.4 2.1c.6.4 1.2.9 1.7 1.4.9-1.3 2.5-2.2 4.1-2.2.4-.1 1-.1 1.5.1zm-.3 4.8c0-.6-.1-1.2-.2-1.7l-2.3-.1c-.2.7-.3 1.3-.3 2l2.8-.2zm.7-1.6c.1.6.1 1.1 0 1.6l2.2-.1c-.1-.5-.2-1-.4-1.4l-1.8-.1zm-1.1-.8c-.2-.8-.5-1.4-.7-1.6h-.8c-.2.6-.4 1.1-.6 1.7l2.1-.1zm.6-1.3c.2.4.3.9.4 1.3l1.4-.1c-.5-.5-1.1-1-1.8-1.2zm2.5 5.7c.2-.4.3-.8.3-1.2l-2.3-.1c-.1.6-.3 1.2-.5 1.7l2.5-.4zm-5.7-5.6c-.8.3-1.3.8-1.8 1.5l1.6-.1c.1-.7.2-1.2.2-1.4z" id="path26" fill="#fedf01"/></g><g id="g28"><path class="st2" d="M349.6 261c.6-.1 1.3-.6 1.3-1.4 0-.7-.3-1.4-2.3-1.4h-3.4v.1c.1 0 .3.1.4.2.2.2.3.6.3 1v5.1h2.8c1.5 0 2.7-.6 2.7-1.9-.1-1.2-.9-1.6-1.8-1.7zm-1.4-2.2c.7 0 1.2.2 1.2.9 0 .8-.7 1-1.4 1h-.6v-2c-.1.1.3.1.8.1zm0 5.2h-.9v-2.6h.9c1.2 0 1.6.4 1.6 1.2 0 1-.6 1.4-1.6 1.4z" id="path30" fill="#fff"/><path class="st2" d="M342.7 264.6h1.8l-2.3-3c.9-.3 1.6-.8 1.6-1.7 0-1.1-.7-1.7-2.4-1.7h-3.5v.1c.1 0 .3.1.4.2.2.2.3.6.3 1.1v4.9h1.5v-2.8h.5l2.1 2.9zm-2.6-5.8h1c.8 0 1.3.2 1.3 1.1 0 .8-.6 1.2-1.5 1.2h-.8v-2.3z" id="path32" fill="#fff"/><path class="st2" d="M357.3 259.1c.4.2.5.5.5.5h.1l.3-1.1s-.6-.4-1.9-.4c-2.1 0-3.6 1-3.6 3.3 0 2.6 1.8 3.2 3.5 3.2 1.5 0 2.1-.5 2.1-.5v-.7s-.5.5-1.7.5c-.9 0-2.3-.4-2.4-2.5 0-1.9.8-2.6 2-2.6.5 0 .9.2 1.1.3z" id="path34" fill="#fff"/></g></g></g></g></g></g></g></g></g><g id="g36" transform="translate(-334.9 -233.5)"><g id="g38"><path class="st0" d="M362.9 267.1c-.9 0-1.6-.7-1.6-1.6 0-.9.7-1.6 1.6-1.6.9 0 1.6.7 1.6 1.6 0 .9-.7 1.6-1.6 1.6zm0-2.9c-.7 0-1.2.6-1.2 1.3 0 .7.5 1.3 1.2 1.3s1.2-.6 1.2-1.3c0-.7-.5-1.3-1.2-1.3zm.1.4c.3 0 .5.2.5.5s-.2.5-.4.5c0 0 .1 0 .1.1.1.1.4.7.4.7h-.4c-.1-.1-.1-.2-.2-.3-.2-.3-.2-.4-.3-.4h-.1v.7h-.3v-1.8h.7zm-.3.7h.1c.2 0 .2 0 .3-.1 0 0 .1-.1.1-.2s0-.2-.1-.2H362.8v.5z" id="path40" fill="#0051a5"/></g></g><g id="g42" transform="translate(-334.9 -233.5)"><path class="st0" id="rect44" fill="#0051a5" d="M373.6 234h.8v33.5h-.8z"/></g><g id="g46" transform="translate(-334.9 -233.5)"><path class="st0" d="M384.8 244.8c-.3-.6-.5-.8-.8-1.4-.8-1.5-1.1-1.9-1.4-2-.1 0-.2-.1-.3-.1v3.5h-1.6v-8.3h3.1c1.5 0 2.4 1 2.4 2.4 0 1.2-.8 2.3-1.9 2.3.2.1.2.2.3.3.5.6 2 3.2 2 3.2h-1.8zm-.9-6.8c-.2-.1-.5-.1-.9-.1h-.6v2.3h.6c.7 0 1-.1 1.3-.3.2-.2.3-.5.3-.8-.1-.6-.3-1-.7-1.1z" id="path48" fill="#0051a5"/><path class="st0" d="M392.2 244.1c-.5.5-1.1.9-2 .9-1.7 0-2.8-1.2-2.8-3.2 0-1.9 1.1-3.2 2.8-3.2.9 0 1.6.3 2.1.9.5.6.7 1.2.7 2.2-.1 1.1-.3 1.8-.8 2.4zm-1.3-4c-.2-.2-.4-.3-.7-.3-.4 0-.7.2-.8.6-.1.3-.2.8-.2 1.4 0 .7.1 1.2.2 1.5.1.3.5.5.8.5.7 0 1-.6 1-2.1 0-.8-.1-1.3-.3-1.6z" id="path50" fill="#0051a5"/><path class="st0" d="M397.2 244.9c-.4 1.2-.7 1.7-1.2 2-.4.3-.9.5-1.5.6l-.6-1.1c.3-.1.8-.2 1-.4.2-.1.3-.3.5-.5.2-.3.2-.4.3-.7h-.4c-.2-.6-.5-1.5-.6-1.7l-1.5-4.3 1.6-.2 1.1 3.6c.1.4.3 1.2.3 1.3 0 0 .1-.7.2-1 0-.2.1-.6.2-.9l.9-2.9h1.7l-2 6.2z" id="path52" fill="#0051a5"/><path class="st0" d="M404.7 245.2c-.4-.2-.7-.4-.9-.7-.1.1-.3.2-.4.3-.3.2-.7.3-1.2.3-1.4 0-2.1-.7-2.1-1.9 0-1.4 1-2.1 3-2.1h.4v-.3c0-.7-.1-.9-.7-.9-.5 0-1.1.3-1.8.7l-.7-1.2c.3-.2.6-.3 1-.5.6-.3 1.1-.4 1.7-.4 1 0 1.7.4 2 1.1.1.3.1.4.1 1.1v2.1c0 .7 0 1 .6 1.4l-1 1zm-1.4-3c-1.1 0-1.5.2-1.5.9 0 .5.3.8.7.8.3 0 .6-.2.8-.4v-1.3z" id="path54" fill="#0051a5"/><path class="st0" d="M408.3 245c-.7 0-1.2-.3-1.4-.8-.1-.3-.1-.5-.1-1.4v-4.6c0-.8 0-1.3-.1-1.8l1.6-.4c.1.3.1.7.1 1.6v4.8c0 1.1 0 1.2.1 1.4.1.1.2.2.3.2h.2l.3 1c-.3-.1-.7 0-1 0z" id="path56" fill="#0051a5"/><path class="st0" d="M416.8 244.8h-3.7v-8.3h2.8c1 0 1.5.2 2.1.6.5.4.7.9.7 1.5s-.2 1-.6 1.4c-.2.2-.4.3-.8.4 1 .3 1.7 1 1.7 2.1 0 1.2-.7 2.3-2.2 2.3zm-.3-6.8c-.1-.1-.3-.1-.7-.1h-1v1.9h1c.4 0 .6 0 .7-.1.2-.1.4-.5.4-.9 0-.3-.1-.6-.4-.8zm0 3.3c-.2-.1-.3-.1-.6-.1h-1v2.3h1.1c.3 0 .6 0 .8-.2.3-.2.4-.6.4-1-.1-.5-.3-.9-.7-1z" id="path58" fill="#0051a5"/><path class="st0" d="M424.7 245.2c-.4-.2-.7-.4-.9-.7-.1.1-.3.2-.4.3-.3.2-.7.3-1.2.3-1.4 0-2.1-.7-2.1-1.9 0-1.4 1-2.1 3-2.1h.4v-.3c0-.7-.1-.9-.7-.9-.5 0-1.1.3-1.8.7l-.7-1.2c.3-.2.6-.3 1-.5.6-.3 1.1-.4 1.7-.4 1 0 1.7.4 2 1.1.1.3.1.4.1 1.1v2.1c0 .7 0 1 .6 1.4l-1 1zm-1.4-3c-1.1 0-1.5.2-1.5.9 0 .5.3.8.7.8.3 0 .6-.2.8-.4v-1.3z" id="path60" fill="#0051a5"/><path class="st0" d="M430 244.8v-4c0-.7-.1-.9-.5-.9-.3 0-.7.2-1.1.6v4.3h-1.6v-4.4c0-.5-.1-1-.2-1.4l1.4-.4c.1.3.2.5.2.8.2-.2.4-.3.7-.5.3-.2.7-.3 1.1-.3.7 0 1.3.4 1.5.9.1.2.1.5.1.9v4.5H430z" id="path62" fill="#0051a5"/><path class="st0" d="M433.3 244.8v-6.9c0-.5 0-1-.1-1.6l1.6-.4c.1.5.1 1.2.1 2v6.9h-1.6zm3.7 0l-2.1-3.5 1.6-2.7h1.9l-2 2.6 2.4 3.6H437z" id="path64" fill="#0051a5"/></g></svg>